<svg xmlns="http://www.w3.org/2000/svg" xmlns:xlink="http://www.w3.org/1999/xlink" width="500" zoomAndPan="magnify" viewBox="0 0 375 74.999997" height="100" preserveAspectRatio="xMidYMid meet" version="1.0"><defs><g/></defs><g fill="#ff1616" fill-opacity="1"><g transform="translate(126.676389, 60.903044)"><g><path d="M 4.546875 -42.8125 L 15.4375 -42.8125 C 21.570312 -42.8125 25.648438 -41.78125 27.671875 -39.71875 C 29.691406 -37.664062 30.703125 -35.179688 30.703125 -32.265625 C 30.703125 -30.328125 30.273438 -28.492188 29.421875 -26.765625 C 28.566406 -25.035156 27.207031 -23.742188 25.34375 -22.890625 C 28.09375 -22.191406 30.117188 -20.96875 31.421875 -19.21875 C 32.722656 -17.46875 33.375 -15.410156 33.375 -13.046875 C 33.375 -10.554688 32.984375 -8.378906 32.203125 -6.515625 C 31.429688 -4.660156 29.820312 -3.109375 27.375 -1.859375 C 24.925781 -0.617188 21.394531 0 16.78125 0 L 4.546875 0 Z M 16.484375 -24.640625 C 19.242188 -24.640625 21.203125 -25.304688 22.359375 -26.640625 C 23.523438 -27.984375 24.109375 -29.6875 24.109375 -31.75 C 24.109375 -35.4375 21.46875 -37.28125 16.1875 -37.28125 L 10.953125 -37.28125 L 10.953125 -24.640625 Z M 17.65625 -5.46875 C 21.1875 -5.46875 23.5625 -6.175781 24.78125 -7.59375 C 26.007812 -9.019531 26.625 -10.816406 26.625 -12.984375 C 26.625 -15.046875 25.921875 -16.640625 24.515625 -17.765625 C 23.117188 -18.890625 21.003906 -19.453125 18.171875 -19.453125 L 10.953125 -19.453125 L 10.953125 -5.46875 Z M 17.65625 -5.46875 "/></g></g></g><g fill="#ff1616" fill-opacity="1"><g transform="translate(163.134293, 60.903044)"><g><path d="M 24.234375 0.578125 C 20.347656 0.578125 16.765625 -0.320312 13.484375 -2.125 C 10.203125 -3.925781 7.585938 -6.5 5.640625 -9.84375 C 3.703125 -13.1875 2.734375 -17.070312 2.734375 -21.5 C 2.734375 -25.957031 3.703125 -29.847656 5.640625 -33.171875 C 7.585938 -36.492188 10.203125 -39.046875 13.484375 -40.828125 C 16.765625 -42.617188 20.347656 -43.515625 24.234375 -43.515625 C 28.117188 -43.515625 31.703125 -42.617188 34.984375 -40.828125 C 38.265625 -39.046875 40.875 -36.492188 42.8125 -33.171875 C 44.75 -29.847656 45.71875 -25.957031 45.71875 -21.5 C 45.71875 -17.070312 44.75 -13.1875 42.8125 -9.84375 C 40.875 -6.5 38.265625 -3.925781 34.984375 -2.125 C 31.703125 -0.320312 28.117188 0.578125 24.234375 0.578125 Z M 24.234375 -5.296875 C 26.910156 -5.296875 29.351562 -5.925781 31.5625 -7.1875 C 33.78125 -8.457031 35.539062 -10.304688 36.84375 -12.734375 C 38.144531 -15.160156 38.796875 -18.0625 38.796875 -21.4375 C 38.796875 -24.851562 38.144531 -27.773438 36.84375 -30.203125 C 35.539062 -32.628906 33.789062 -34.460938 31.59375 -35.703125 C 29.40625 -36.953125 26.953125 -37.578125 24.234375 -37.578125 C 21.515625 -37.578125 19.046875 -36.953125 16.828125 -35.703125 C 14.617188 -34.460938 12.875 -32.628906 11.59375 -30.203125 C 10.3125 -27.773438 9.671875 -24.851562 9.671875 -21.4375 C 9.671875 -18.0625 10.328125 -15.160156 11.640625 -12.734375 C 12.960938 -10.304688 14.738281 -8.457031 16.96875 -7.1875 C 19.207031 -5.925781 21.628906 -5.296875 24.234375 -5.296875 Z M 24.234375 -5.296875 "/></g></g></g><g fill="#ff1616" fill-opacity="1"><g transform="translate(211.589519, 60.903044)"><g><path d="M 14.390625 0.578125 C 12.054688 0.578125 9.742188 0.171875 7.453125 -0.640625 C 5.160156 -1.453125 3.507812 -2.363281 2.5 -3.375 L 5.59375 -8.90625 C 6.40625 -8.175781 7.675781 -7.410156 9.40625 -6.609375 C 11.132812 -5.816406 12.796875 -5.421875 14.390625 -5.421875 C 16.441406 -5.421875 18.117188 -5.90625 19.421875 -6.875 C 20.722656 -7.84375 21.375 -9.179688 21.375 -10.890625 C 21.375 -12.210938 21.023438 -13.359375 20.328125 -14.328125 C 19.628906 -15.296875 18.773438 -16.097656 17.765625 -16.734375 C 16.753906 -17.378906 15.316406 -18.171875 13.453125 -19.109375 C 11.242188 -20.191406 9.726562 -21.003906 8.90625 -21.546875 C 5.144531 -24.078125 3.265625 -27.570312 3.265625 -32.03125 C 3.265625 -35.726562 4.484375 -38.554688 6.921875 -40.515625 C 9.367188 -42.472656 12.457031 -43.453125 16.1875 -43.453125 C 20.1875 -43.453125 23.585938 -42.304688 26.390625 -40.015625 L 23.296875 -34.71875 C 22.554688 -35.488281 21.515625 -36.15625 20.171875 -36.71875 C 18.835938 -37.289062 17.414062 -37.578125 15.90625 -37.578125 C 13.957031 -37.578125 12.429688 -37.140625 11.328125 -36.265625 C 10.222656 -35.390625 9.671875 -34.097656 9.671875 -32.390625 C 9.671875 -31.179688 10.019531 -30.101562 10.71875 -29.15625 C 11.414062 -28.207031 12.296875 -27.378906 13.359375 -26.671875 C 14.429688 -25.972656 15.878906 -25.117188 17.703125 -24.109375 C 19.453125 -23.140625 20.789062 -22.375 21.71875 -21.8125 C 22.65625 -21.25 23.53125 -20.582031 24.34375 -19.8125 C 25.46875 -18.800781 26.378906 -17.59375 27.078125 -16.1875 C 27.785156 -14.789062 28.140625 -13.257812 28.140625 -11.59375 C 28.140625 -8.988281 27.546875 -6.773438 26.359375 -4.953125 C 25.171875 -3.128906 23.535156 -1.75 21.453125 -0.8125 C 19.378906 0.113281 17.023438 0.578125 14.390625 0.578125 Z M 14.390625 0.578125 "/></g></g></g><g fill="#ff1616" fill-opacity="1"><g transform="translate(242.165236, 60.903044)"><g><path d="M 14.390625 0.578125 C 12.054688 0.578125 9.742188 0.171875 7.453125 -0.640625 C 5.160156 -1.453125 3.507812 -2.363281 2.5 -3.375 L 5.59375 -8.90625 C 6.40625 -8.175781 7.675781 -7.410156 9.40625 -6.609375 C 11.132812 -5.816406 12.796875 -5.421875 14.390625 -5.421875 C 16.441406 -5.421875 18.117188 -5.90625 19.421875 -6.875 C 20.722656 -7.84375 21.375 -9.179688 21.375 -10.890625 C 21.375 -12.210938 21.023438 -13.359375 20.328125 -14.328125 C 19.628906 -15.296875 18.773438 -16.097656 17.765625 -16.734375 C 16.753906 -17.378906 15.316406 -18.171875 13.453125 -19.109375 C 11.242188 -20.191406 9.726562 -21.003906 8.90625 -21.546875 C 5.144531 -24.078125 3.265625 -27.570312 3.265625 -32.03125 C 3.265625 -35.726562 4.484375 -38.554688 6.921875 -40.515625 C 9.367188 -42.472656 12.457031 -43.453125 16.1875 -43.453125 C 20.1875 -43.453125 23.585938 -42.304688 26.390625 -40.015625 L 23.296875 -34.71875 C 22.554688 -35.488281 21.515625 -36.15625 20.171875 -36.71875 C 18.835938 -37.289062 17.414062 -37.578125 15.90625 -37.578125 C 13.957031 -37.578125 12.429688 -37.140625 11.328125 -36.265625 C 10.222656 -35.390625 9.671875 -34.097656 9.671875 -32.390625 C 9.671875 -31.179688 10.019531 -30.101562 10.71875 -29.15625 C 11.414062 -28.207031 12.296875 -27.378906 13.359375 -26.671875 C 14.429688 -25.972656 15.878906 -25.117188 17.703125 -24.109375 C 19.453125 -23.140625 20.789062 -22.375 21.71875 -21.8125 C 22.65625 -21.25 23.53125 -20.582031 24.34375 -19.8125 C 25.46875 -18.800781 26.378906 -17.59375 27.078125 -16.1875 C 27.785156 -14.789062 28.140625 -13.257812 28.140625 -11.59375 C 28.140625 -8.988281 27.546875 -6.773438 26.359375 -4.953125 C 25.171875 -3.128906 23.535156 -1.75 21.453125 -0.8125 C 19.378906 0.113281 17.023438 0.578125 14.390625 0.578125 Z M 14.390625 0.578125 "/></g></g></g><g fill="#ff1616" fill-opacity="1"><g transform="translate(129.072058, 24.492256)"><g><path d="M -22.90625 0 L -4.484375 0 L -4.484375 32.984375 L -22.90625 32.984375 L -22.90625 29.328125 L -8.640625 29.328125 L -8.640625 19.03125 L -22.078125 19.03125 L -22.078125 15.421875 L -8.640625 15.421875 L -8.640625 3.65625 L -22.90625 3.65625 Z M -22.90625 0 "/></g></g></g></svg>